<svg preserveAspectRatio="xMidYMid meet" data-bbox="7.997 82.622 184.047 34.678" xmlns="http://www.w3.org/2000/svg" viewBox="7.997 82.622 184.047 34.678" role="presentation" aria-hidden="true">
    <g fill="#ffffff">
        <path d="M170.2 106.7c.4-5.1 1.6-10.8 1.1-15.9-.4-4.1-3.1-3.5-6.6-3.7-11.6-.6-23.1-1.8-34.7-2.5-21.5-1.4-42.9-2.4-64.4-1.8-11.7.3-23.4 1-35.1 2.2-.4 0-.6.2-.7.5 0 .1-.1.2 0 .4.4 6.6.5 13.3.9 19.9 0 .5.4 1 1 1 10.5.4 21.1.9 31.7.9 5.6 0 11.1-.6 16.7-1 5.7-.3 11.5-.2 17.3 0 11.8.5 23.6 1.4 35.4 1.5 12.1.1 24.3-.2 36.4-.6.5 0 .9-.3 1-.9z"></path>
        <path d="M192 96.2c.2-.6-.3-1.3-.9-1.3-3.8.1-7.3-.5-11.1-1.2-2.3-.4-4.3-.4-6.5.6-.7.3-.6 1-.3 1.4-.2 4.4-.6 8.7-1.1 13-3.7.2-7.5.4-11.2.6-.6 0-.9.4-1 1-.2 1.6-.4 3.2-.3 4.8 0 .5.4 1 1 1 10.2-.4 20.4 3.1 30.4-.3.6-.2 1-.8.6-1.4-1.8-3.5-4.1-6.6-7-9.3 3.4-1.9 5.9-5 7.4-8.9z"></path>
        <path d="M42 109c-3.2-.4-6.2.4-9.4.6-1.4.1-3.1.5-3.7-.7-.3-.6-.2-1.8-.3-2.4-.5-4.4-.7-9-1.7-13.3-.1-.6-.7-.8-1.2-.7h-.4c-4.1.5-8.2 1-12.3 1.4-1.5.1-4.9.1-5 2.5-.1 1.9 2.7 3.1 4 4.1 1.4 1.1 2.8 2.6 4.5 3.4-2.3 2.9-5 5.4-7.6 8-.6.7-.2 1.6.6 1.7 10.9 1.5 21.9 2.9 32.7.3.4-.1.7-.5.8-.9 0-1 .1-2 .1-3-.1-.6-.5-.9-1.1-1z"></path>
    </g>
</svg>